<?xml version="1.0" encoding="UTF-8"?>
<svg version="1.1" xmlns="http://www.w3.org/2000/svg" width="512" height="512">
<path d="M0 0 C168.96 0 337.92 0 512 0 C512 168.96 512 337.92 512 512 C343.04 512 174.08 512 0 512 C0 343.04 0 174.08 0 0 Z " fill="#FEF100" transform="translate(0,0)"/>
<path d="M0 0 C168.96 0 337.92 0 512 0 C512 13.2 512 26.4 512 40 C508.23524516 40.94118871 504.92365308 41.26923738 501.0625 41.5 C496.44703132 41.74122929 496.44703132 41.74122929 491.89428711 42.45898438 C487.71511053 43.24017841 483.51393683 43.56465792 479.28125 43.9375 C478.34575317 44.02249756 477.41025635 44.10749512 476.44641113 44.19506836 C472.45600406 44.55754517 468.46504082 44.91372719 464.47412109 45.27050781 C461.55546354 45.53233486 458.63710664 45.79734337 455.71875 46.0625 C454.81966919 46.14169678 453.92058838 46.22089355 452.9942627 46.30249023 C448.92957774 46.67209519 444.99344689 47.12863508 441 48 C437.46043056 48.29496412 433.92029999 48.50480948 430.375 48.71875 C427.13003799 48.92458984 427.13003799 48.92458984 424.5 49.5 C420.17364331 50.36527134 415.77215306 50.45340456 411.375 50.71875 C408.48970475 50.95919127 405.82892212 51.4260158 403 52 C401.06433956 52.15083068 399.1263243 52.27257155 397.1875 52.375 C390.41775643 52.8172804 383.72665384 53.62592093 377 54.5 C369.23414358 55.50911578 361.52986666 56.37578063 353.70703125 56.7890625 C351.03221437 56.9420624 351.03221437 56.9420624 348.57421875 57.4921875 C344.21933305 58.35126966 339.79919632 58.45177264 335.375 58.71875 C332.13003799 58.92458984 332.13003799 58.92458984 329.5 59.5 C325.17364331 60.36527134 320.77215306 60.45340456 316.375 60.71875 C313.13003799 60.92458984 313.13003799 60.92458984 310.5 61.5 C306.17364331 62.36527134 301.77215306 62.45340456 297.375 62.71875 C294.17565559 62.91436302 294.17565559 62.91436302 291.78222656 63.4699707 C288.24280606 64.14424957 284.69466389 64.45254328 281.109375 64.76171875 C279.46132868 64.90941128 277.81329894 65.05728891 276.1652832 65.20532227 C275.2865152 65.28340118 274.40774719 65.3614801 273.50234985 65.44192505 C254.42121014 67.14441572 235.36426618 69.05981929 216.3125 71.0625 C215.12740845 71.18619965 213.94231689 71.30989929 212.72131348 71.43734741 C199.41617415 72.82817152 186.12853672 74.29951122 172.86250305 76.02784729 C166.47990128 76.85213045 160.13563951 77.44943791 153.70703125 77.7890625 C151.03221437 77.9420624 151.03221437 77.9420624 148.57421875 78.4921875 C144.21933305 79.35126966 139.79919632 79.45177264 135.375 79.71875 C132.13003799 79.92458984 132.13003799 79.92458984 129.5 80.5 C125.17364331 81.36527134 120.77215306 81.45340456 116.375 81.71875 C113.13003799 81.92458984 113.13003799 81.92458984 110.5 82.5 C106.17364331 83.36527134 101.77215306 83.45340456 97.375 83.71875 C94.18418098 83.9131375 94.18418098 83.9131375 91.83349609 84.46118164 C88.00880983 85.18848498 84.16106932 85.53512564 80.2890625 85.90234375 C78.48598886 86.07782102 76.68292965 86.25344671 74.87988281 86.42919922 C73.44666687 86.56778351 73.44666687 86.56778351 71.98449707 86.70916748 C67.89748316 87.10743778 63.81191143 87.51959721 59.72625732 87.93154907 C55.38135411 88.36885458 51.03591006 88.80065007 46.69042969 89.23217773 C44.47642062 89.45276347 42.262553 89.67477353 40.04882812 89.89819336 C36.7698932 90.22884023 33.49047731 90.55432022 30.2109375 90.87890625 C28.77105972 91.0258065 28.77105972 91.0258065 27.30209351 91.17567444 C18.19481687 92.06788853 9.16770493 92.49068306 0 93 C0 62.31 0 31.62 0 0 Z " fill="#4DBCE4" transform="translate(0,0)"/>
<path d="M0 0 C13.83176565 1.15264714 13.83176565 1.15264714 20.38671875 2.05078125 C21.1317012 2.15085983 21.87668365 2.25093842 22.64424133 2.35404968 C24.20972623 2.56518325 25.77500878 2.77782249 27.34008789 2.99194336 C29.63825255 3.30577489 31.93720208 3.61322345 34.23632812 3.91992188 C42.96445637 5.0970953 51.66010367 6.41761225 60.3515625 7.83984375 C75.71585569 10.3413478 91.13649978 12.42760461 106.55731201 14.54498291 C115.35833676 15.75367444 124.15787405 16.97310746 132.95703125 18.1953125 C134.26746399 18.37728746 134.26746399 18.37728746 135.60437012 18.56293869 C151.75982385 20.80855821 167.89553789 23.17230862 184.02484131 25.59887695 C197.29673188 27.59311884 210.57638653 29.51631111 223.87109375 31.3515625 C224.59546379 31.45158192 225.31983383 31.55160133 226.06615448 31.65465164 C233.19294602 32.63795403 240.32045305 33.61588346 247.44921398 34.58480644 C259.6748827 36.24757847 271.88685002 37.9380756 284.0625 39.9375 C299.1886379 42.41701801 314.37482219 44.46034046 329.55923462 46.54525757 C338.35049794 47.75259884 347.14028653 48.97058878 355.9296875 50.19140625 C356.80245897 50.31260141 357.67523045 50.43379658 358.57444954 50.55866432 C374.89683007 52.82744356 391.19947696 55.21515932 407.49551392 57.66625977 C427.646384 60.69431276 447.82555749 63.4954862 468.02075195 66.21166992 C482.73477764 68.20211875 497.36441709 70.49231104 512 73 C512 82.57 512 92.14 512 102 C343.04 102 174.08 102 0 102 C0 68.34 0 34.68 0 0 Z " fill="#D93C8D" transform="translate(0,410)"/>
<path d="M0 0 C7.26 0 14.52 0 22 0 C22 12.87 22 25.74 22 39 C25.63 37.35 29.26 35.7 33 34 C46.51250139 29.28202747 60.27356368 31.85468337 73 37.5 C85.08022316 43.89264728 92.11730764 53.56295342 97 66 C100.39753938 78.24320405 98.59959286 92.36003529 92.71484375 103.4140625 C84.8823842 116.11181029 73.36969544 124.12770659 59 128 C56.36869263 128.18716412 53.87492045 128.28703259 51.25 128.25 C50.54262695 128.24178223 49.83525391 128.23356445 49.10644531 128.22509766 C34.87548414 127.92279537 23.5562397 123.28827138 13.1875 113.3515625 C3.56521941 103.00761086 -0.17766189 91.38505396 -0.11352539 77.42431641 C-0.11367142 76.58463318 -0.11381744 75.74494995 -0.1139679 74.87982178 C-0.11327445 72.12037521 -0.10550874 69.36099719 -0.09765625 66.6015625 C-0.09579005 64.68199704 -0.0943671 62.7624311 -0.09336853 60.84286499 C-0.08955925 55.8024564 -0.07974257 50.76207684 -0.06866455 45.72167969 C-0.05841623 40.5735717 -0.05386359 35.42545901 -0.04882812 30.27734375 C-0.03811883 20.18488106 -0.02053494 10.09244749 0 0 Z " fill="#010100" transform="translate(259,179)"/>
<path d="M0 0 C12.64121864 -0.62213327 24.93637629 2.97857112 34.59375 11.421875 C35.23699219 12.04707031 35.88023437 12.67226562 36.54296875 13.31640625 C37.23777344 13.97253906 37.93257813 14.62867188 38.6484375 15.3046875 C48.25741914 25.16606265 51.86260683 36.7534931 51.93017578 50.17944336 C51.70345481 62.9178501 45.8443407 73.79010408 37.29296875 83.00390625 C26.71630662 93.00197636 13.91932943 96.98224125 -0.37866211 96.85717773 C-7.77842677 96.56879859 -13.8830186 94.77039953 -20.45703125 91.31640625 C-21.42125 90.82011719 -22.38546875 90.32382812 -23.37890625 89.8125 C-34.65595958 83.34844319 -42.40714375 72.92135203 -45.99682617 60.43945312 C-48.83096708 47.36481688 -46.68956168 33.96777896 -39.76953125 22.69140625 C-32.12939751 12.04843387 -22.17904494 3.68540918 -9.08203125 0.87890625 C-6.05994588 0.49841214 -3.0334148 0.27763458 0 0 Z " fill="#020200" transform="translate(196.45703125,210.68359375)"/>
<path d="M0 0 C0 4.62 0 9.24 0 14 C-9.1889641 15.4803098 -18.35872927 16.64939415 -27.61621094 17.60058594 C-29.03304352 17.74850572 -30.44984666 17.89670779 -31.86662292 18.04516602 C-35.68951578 18.44496187 -39.51280246 18.84086673 -43.33617306 19.23606396 C-47.4109859 19.65797214 -51.48540791 20.08362293 -55.55987549 20.5088501 C-63.32528846 21.31872908 -71.09102852 22.12542514 -78.85689855 22.93090844 C-88.31762626 23.91231509 -97.77796199 24.89747771 -107.23828125 25.8828125 C-110.61265316 26.23422588 -113.98702807 26.58561042 -117.36140442 26.9369812 C-118.60762391 27.06675332 -118.60762391 27.06675332 -119.87901956 27.19914711 C-125.75760826 27.81124323 -131.63626112 28.4227208 -137.51493835 29.03396606 C-162.52273787 31.63447323 -187.52781484 34.26017264 -212.53179455 36.89716911 C-225.80615935 38.29664532 -239.08134885 39.6882579 -252.35657167 41.07956696 C-254.34723708 41.28819977 -256.33790039 41.49685253 -258.32856369 41.70550537 C-266.27922935 42.53885136 -274.22991203 43.37203493 -282.18060303 44.20513916 C-302.74113102 46.35955189 -323.30159879 48.51453792 -343.8619194 50.67092896 C-346.7040867 50.96896941 -349.54626863 51.26686976 -352.38845825 51.56469727 C-368.92606412 53.29783951 -385.46182086 55.04733802 -401.99548626 56.8177166 C-412.00791754 57.88966714 -422.02082683 58.95708274 -432.03402424 60.02185249 C-438.48994537 60.70862586 -444.94556469 61.39804297 -451.40063477 62.09277344 C-457.76563327 62.7776832 -464.13131346 63.45589887 -470.49751091 64.12957001 C-472.8901502 64.38393238 -475.28253994 64.64065479 -477.67465401 64.89990997 C-489.16111511 66.14352328 -500.43378233 67.36313938 -512 67 C-512 62.38 -512 57.76 -512 53 C-505.87040737 52.32113239 -499.74042859 51.64588983 -493.61010742 50.97363281 C-491.53611145 50.74572468 -489.46221363 50.51692118 -487.38842773 50.28710938 C-475.2282832 48.94024858 -463.06951401 47.71447206 -450.87792969 46.68864441 C-443.87548225 46.09372843 -436.90729161 45.34055084 -429.9375 44.4375 C-422.18291298 43.46607005 -414.47834495 42.62701839 -406.671875 42.2109375 C-404.02713056 42.05654475 -404.02713056 42.05654475 -401.578125 41.5078125 C-397.22165663 40.64972025 -392.80058393 40.5483111 -388.375 40.28125 C-385.13003799 40.07541016 -385.13003799 40.07541016 -382.5 39.5 C-378.17364331 38.63472866 -373.77215306 38.54659544 -369.375 38.28125 C-366.1652959 38.08323443 -366.1652959 38.08323443 -363.71801758 37.52294922 C-360.52621719 36.90884373 -357.375854 36.62432722 -354.13671875 36.3515625 C-352.77529331 36.23407127 -351.41388446 36.11638755 -350.05249023 35.99853516 C-349.34180389 35.93788879 -348.63111755 35.87724243 -347.89889526 35.8147583 C-337.55488865 34.92714623 -327.2305593 33.99471087 -316.9375 32.625 C-304.83616476 31.02957733 -292.70212299 29.76301057 -280.5625 28.5 C-279.52144104 28.39161804 -278.48038208 28.28323608 -277.40777588 28.17156982 C-262.52726006 26.62770584 -247.64076474 25.17466487 -232.73461914 23.90039062 C-231.50864014 23.79404297 -230.28266113 23.68769531 -229.01953125 23.578125 C-227.96870361 23.48950195 -226.91787598 23.40087891 -225.83520508 23.30957031 C-223.17327003 23.018919 -220.6203409 22.54034427 -218 22 C-214.46043056 21.70503588 -210.92029999 21.49519052 -207.375 21.28125 C-204.13003799 21.07541016 -204.13003799 21.07541016 -201.5 20.5 C-197.17364331 19.63472866 -192.77215306 19.54659544 -188.375 19.28125 C-185.13003799 19.07541016 -185.13003799 19.07541016 -182.5 18.5 C-178.17364331 17.63472866 -173.77215306 17.54659544 -169.375 17.28125 C-166.17201694 17.08483572 -166.17201694 17.08483572 -163.75976562 16.52734375 C-160.34563839 15.87496275 -156.9277812 15.57269422 -153.46875 15.28125 C-152.39844543 15.18704773 -152.39844543 15.18704773 -151.30651855 15.09094238 C-148.27191733 14.82393996 -145.23676994 14.56339321 -142.20166016 14.30224609 C-139.97798878 14.10998272 -137.75462212 13.91443888 -135.53125 13.71875 C-134.51073547 13.6327655 -134.51073547 13.6327655 -133.46960449 13.54504395 C-129.91627906 13.23195311 -126.48807642 12.73593243 -123 12 C-119.46043056 11.70503588 -115.92029999 11.49519052 -112.375 11.28125 C-109.13003799 11.07541016 -109.13003799 11.07541016 -106.5 10.5 C-102.17364331 9.63472866 -97.77215306 9.54659544 -93.375 9.28125 C-90.48853879 9.04071157 -87.830656 8.5706243 -85 8 C-81.78570208 7.7383711 -78.57133612 7.55949021 -75.3515625 7.37890625 C-71.57437242 7.10302279 -67.84448196 6.58281409 -64.09375 6.0625 C-55.70747672 4.9175968 -47.30688336 4.15597543 -38.875 3.4375 C-36.67318031 3.24909737 -34.47148021 3.05961819 -32.27005005 2.86671448 C-30.29990074 2.69412472 -28.32940337 2.52552155 -26.35888672 2.35717773 C-23.50911986 2.05413885 -20.79965803 1.58981475 -18 1 C-15.6484785 0.78181759 -13.29377896 0.59626532 -10.9375 0.4375 C-9.72964844 0.35371094 -8.52179688 0.26992188 -7.27734375 0.18359375 C-4.85458916 0.04787329 -2.42655308 0 0 0 Z " fill="#050602" transform="translate(512,40)"/>
<path d="M0 0 C9.17005339 0.66598153 18.23529751 1.74630302 27.34008789 2.99194336 C29.63825255 3.30577489 31.93720208 3.61322345 34.23632812 3.91992188 C42.96445637 5.0970953 51.66010367 6.41761225 60.3515625 7.83984375 C75.71585569 10.3413478 91.13649978 12.42760461 106.55731201 14.54498291 C115.35833676 15.75367444 124.15787405 16.97310746 132.95703125 18.1953125 C134.26746399 18.37728746 134.26746399 18.37728746 135.60437012 18.56293869 C151.75982385 20.80855821 167.89553789 23.17230862 184.02484131 25.59887695 C197.29673188 27.59311884 210.57638653 29.51631111 223.87109375 31.3515625 C224.59546379 31.45158192 225.31983383 31.55160133 226.06615448 31.65465164 C233.19294602 32.63795403 240.32045305 33.61588346 247.44921398 34.58480644 C259.6748827 36.24757847 271.88685002 37.9380756 284.0625 39.9375 C299.1886379 42.41701801 314.37482219 44.46034046 329.55923462 46.54525757 C338.35049794 47.75259884 347.14028653 48.97058878 355.9296875 50.19140625 C356.80245897 50.31260141 357.67523045 50.43379658 358.57444954 50.55866432 C374.89683007 52.82744356 391.19947696 55.21515932 407.49551392 57.66625977 C427.646384 60.69431276 447.82555749 63.4954862 468.02075195 66.21166992 C482.73148396 68.2016732 497.37241076 70.46980443 512 73 C512 77.62 512 82.24 512 87 C500.4714652 86.30055868 489.15503289 84.69172303 477.734375 83.01953125 C475.52935564 82.70007428 473.32427526 82.38103825 471.11914062 82.06237793 C466.26686368 81.36041962 461.41497495 80.65585261 456.56335449 79.94937134 C448.51459367 78.77754822 440.46491648 77.61211995 432.41503906 76.44799805 C430.98007057 76.24046099 429.54510226 76.03292269 428.11013412 75.82538319 C425.89829308 75.5054884 423.68645083 75.18560197 421.47460437 74.86574465 C416.83648443 74.19498761 412.19843251 73.52376237 407.56042838 72.8522051 C365.66652532 66.78632807 323.7645555 60.77656848 281.86299926 54.76382983 C273.99602922 53.63491021 266.12911748 52.50558496 258.26223755 51.3760376 C211.78928531 44.70338847 165.31524203 38.03859265 118.83590555 31.41054273 C114.96970744 30.85918424 111.10353019 30.30767954 107.23735273 29.75617629 C91.01604935 27.44228372 74.7946845 25.12883559 58.57239574 22.82186007 C52.05689894 21.89522164 45.54159622 20.96722739 39.02644497 20.03816247 C34.60031759 19.4070847 30.17394479 18.77776962 25.74736083 18.14990288 C22.47025083 17.68453507 19.19352883 17.21645939 15.91674805 16.7487793 C14.75349377 16.58436498 13.59023949 16.41995066 12.39173508 16.25055408 C11.33411091 16.09908263 10.27648674 15.94761118 9.18681335 15.79154968 C7.81861969 15.59696434 7.81861969 15.59696434 6.42278576 15.39844799 C4.26073986 15.04288092 2.12566843 14.53141711 0 14 C0 9.38 0 4.76 0 0 Z " fill="#040201" transform="translate(0,410)"/>
<path d="M0 0 C7.26 0 14.52 0 22 0 C22.00410889 1.58345215 22.00821777 3.1669043 22.01245117 4.79833984 C22.03432038 10.70654277 22.08869229 16.61408713 22.15258789 22.52197266 C22.17569982 25.07268941 22.19014751 27.62350068 22.19555664 30.17431641 C22.20489539 33.85378457 22.24599819 37.53178 22.29296875 41.2109375 C22.2890361 42.34050873 22.28510345 43.47007996 22.28105164 44.63388062 C22.43038043 52.84692605 24.11452169 59.66000896 29.70866394 65.90853882 C35.470747 71.40161978 41.53738298 73.15043492 49.375 73.5 C57.49812729 73.28350877 63.80976171 70.66740129 69.4375 64.75 C75.05221912 57.14852483 75.4579796 48.92126003 75.51171875 39.74609375 C75.53864555 38.03390404 75.53864555 38.03390404 75.56611633 36.28712463 C75.6199442 32.67061975 75.65402723 29.05424476 75.6875 25.4375 C75.72069729 22.97328932 75.75518916 20.50909573 75.79101562 18.04492188 C75.87565512 12.03004205 75.94259762 6.01519892 76 0 C83.26 0 90.52 0 98 0 C98.09953334 7.73718599 98.17178259 15.47399194 98.21972656 23.21166992 C98.23973214 25.83901469 98.26694537 28.46631556 98.30175781 31.09350586 C98.35076332 34.88927096 98.37308051 38.68444289 98.390625 42.48046875 C98.41127014 43.63830368 98.43191528 44.79613861 98.45318604 45.98905945 C98.45661379 58.69810652 95.16159004 69.20609195 87 79 C86.42636719 79.70898438 85.85273438 80.41796875 85.26171875 81.1484375 C76.81968048 90.58472011 64.51173608 95.38158931 52.12890625 96.28125 C37.45091906 96.95864435 25.91988219 92.47542715 14.66015625 83.0390625 C6.9838155 75.96303459 0.6343423 65.71054695 -0.24050903 55.0765686 C-0.23606781 54.0595285 -0.23162659 53.0424884 -0.22705078 51.99462891 C-0.22689972 50.83387848 -0.22674866 49.67312805 -0.22659302 48.47720337 C-0.21627045 47.23949188 -0.20594788 46.0017804 -0.1953125 44.7265625 C-0.1924826 43.44768158 -0.18965271 42.16880066 -0.18673706 40.85116577 C-0.1774602 37.46779901 -0.15952183 34.08470674 -0.1373291 30.70141602 C-0.11679041 27.24237426 -0.10771826 23.78330404 -0.09765625 20.32421875 C-0.07563197 13.54939409 -0.04112034 6.77473459 0 0 Z " fill="#010100" transform="translate(369,211)"/>
<path d="M0 0 C11.08979499 8.66991198 19.58361418 18.97584159 21.43643188 33.3968811 C21.5725501 36.92775393 21.56415089 40.42443696 21.48828125 43.95703125 C21.48120651 45.22600754 21.47413177 46.49498383 21.46684265 47.80241394 C21.4438202 51.128793 21.3991447 54.45335439 21.34332275 57.77923584 C21.29158995 61.19185939 21.26921512 64.60467304 21.24414062 68.01757812 C21.18937899 74.67893838 21.10326541 81.33922229 21 88 C13.74 88 6.48 88 -1 88 C-1.00410889 86.41654785 -1.00821777 84.8330957 -1.01245117 83.20166016 C-1.03432038 77.29345723 -1.08869229 71.38591287 -1.15258789 65.47802734 C-1.17569982 62.92731059 -1.19014751 60.37649932 -1.19555664 57.82568359 C-1.20489539 54.14621543 -1.24599819 50.46822 -1.29296875 46.7890625 C-1.2890361 45.65949127 -1.28510345 44.52992004 -1.28105164 43.36611938 C-1.43038043 35.15307395 -3.11452169 28.33999104 -8.70866394 22.09146118 C-14.470747 16.59838022 -20.53738298 14.84956508 -28.375 14.5 C-35.75103208 14.69658023 -41.27487208 16.74840529 -46.84375 21.609375 C-53.89611267 29.14572334 -54.45528902 37.50170897 -54.51171875 47.375 C-54.52966995 48.5400708 -54.54762115 49.7051416 -54.56611633 50.90551758 C-54.62002508 54.60364227 -54.65405354 58.30163931 -54.6875 62 C-54.72069012 64.51694477 -54.75518134 67.03387274 -54.79101562 69.55078125 C-54.87574081 75.70042846 -54.94264515 81.85003908 -55 88 C-62.26 88 -69.52 88 -77 88 C-77.09953334 80.26281401 -77.17178259 72.52600806 -77.21972656 64.78833008 C-77.23973214 62.16098531 -77.26694537 59.53368444 -77.30175781 56.90649414 C-77.35076332 53.11072904 -77.37308051 49.31555711 -77.390625 45.51953125 C-77.41127014 44.36169632 -77.43191528 43.20386139 -77.45318604 42.01094055 C-77.45661517 29.29679728 -74.1571391 18.80592253 -66 9 C-65.47664063 8.36449219 -64.95328125 7.72898438 -64.4140625 7.07421875 C-48.07460607 -10.89918332 -19.8021165 -13.42079861 0 0 Z " fill="#010100" transform="translate(117,219)"/>
<path d="M0 0 C7.00774087 4.08016492 12.30257119 10.15671766 14.5625 18 C15.49810026 25.57836214 14.62223345 32.44363903 10.5625 39 C5.2488207 45.03174407 -0.47736586 49.46639144 -8.6328125 50.34375 C-17.67085291 50.73416211 -24.23752887 49.33330927 -31.2421875 43.49609375 C-36.65739499 37.90576761 -38.8660604 30.6000695 -40.0625 23.0625 C-39.62896033 16.26571677 -35.91825981 9.51122528 -31.2109375 4.74609375 C-22.1130306 -2.54136011 -11.02456898 -5.02192789 0 0 Z " fill="#FBEE00" transform="translate(320.4375,235)"/>
<path d="M0 0 C6.2848738 3.961375 10.51369193 9.9541261 12.61328125 17.08203125 C14.17913024 24.8480096 11.8622284 32.2033 7.8671875 38.8984375 C3.88220391 44.0973896 -1.91641339 46.90681866 -8 49 C-16.6618207 50.07847047 -23.86360365 49.1923868 -31 44 C-36.34323541 39.17189692 -40.40846035 33.79147114 -41.3125 26.46875 C-41.66630747 18.59653383 -40.28091 11.72427622 -34.9765625 5.703125 C-25.04629685 -3.58319851 -12.48761411 -6.35208117 0 0 Z " fill="#FCEF00" transform="translate(213,236)"/>
</svg>
